<svg id="Layer_1" data-name="Layer 1" xmlns="http://www.w3.org/2000/svg" viewBox="0 0 1000 1000"><defs><style>.cls-1{fill:#666;}.cls-2{fill:#fff;}.cls-3{fill:#fdd106;}.cls-4{fill:#1ac3f3;}.cls-5{fill:#8cc760;}.cls-6{fill:#333;}.cls-7{fill:#888;}</style></defs><path class="cls-1" d="M710,547.17l.94-.49-.38-.08-1,.49Z"/><path class="cls-1" d="M867.6,644q-6.42-7.43-13-14.13c-56.48-57.36-137.78-80.24-145.25-82.64-50.25,25.28-111.64,44.24-186.06,56.67l2.6,6.56c2.94,3.21,138.3,146.43,342.29,34.2Z"/><path id="Eyeball" class="cls-2" d="M707.94,547.61C894.11,452.44,930.47,294.6,934,276.87c-.65-1.16-1.34-2.29-2-3.45a273.88,273.88,0,0,0-87-42.31c-56.43-16.38-116.46-14.7-170.46,5.07-51.49,18.35-97.61,52.3-129.84,101.4-45.42,69.2-56.15,158.51-33.75,238.27,2,7.53,4.41,14.92,7,22.23,1.3,2.5,2.63,5,4,7.43C596.52,592.88,658,573.63,708.33,548,706.54,547.39,706.21,547.27,707.94,547.61Z"/><path id="Body" class="cls-3" d="M291.47,638.11C255.22,576.35,234,504.37,231.78,432.78c-1.19-39.4.6-82.34-7.16-118.19-6.65-30.71-25.12-49.37-43.3-61-14.6-9.38-24.75-12.37-40.5-20.33-.73-.36-1.43-.8-2.15-1.17C98,236.86,52.82,226.41,7.35,184.77,6,219.42,10.23,256.44,37.78,282c6.17,5.73,13.48,13,20.88,19.78,12.64,11.54,47.8,24.73,43.79,86-2.24,34.3-6.53,90.46-3.18,129.73A484.22,484.22,0,0,0,217.06,795.7c149.62,170.31,430.42,215,632.32,29.77h-.2C575.57,902.63,388.16,802.84,291.47,638.11Z"/><path id="Wing" class="cls-4" d="M675.7,769.87C477.93,712.17,261.44,388.74,464.39,183,605,40.48,764.1,111.86,784.56,121.85a442.59,442.59,0,0,0-414.37-29c-.62.29-1.95.92-4,1.81-28,12.34-187.13,99.78-311.29-13.24,1.86,52.4,20.27,114.36,65.31,140.82,6.73,4,13.54,7.62,20.4,11.09,15.76,8,25.91,10.94,40.51,20.32,18.18,11.69,36.64,30.35,43.3,61.06,7.76,35.84,6,78.79,7.16,118.18,2.17,71.59,23.43,143.57,59.69,205.34C388,803,575.42,902.78,849.07,825.58h.09"/><path id="Crest" class="cls-5" d="M546,338.36c32-48.64,77.79-82.29,128.91-100.47,53.62-19.58,113.22-21.24,169.24-5A271.34,271.34,0,0,1,934,277.14,446.23,446.23,0,0,0,831.2,155.45c-1-.81-1.94-1.65-2.93-2.45-5.23-4.25-10.62-8.31-16-12.32-2.52-1.85-5-3.73-7.59-5.54-4.32-3.06-8.73-6-13.15-8.87q-4.05-2.64-8.15-5.18c-20.46-10-179.57-81.37-320.17,61.16C260.21,388,476.7,711.41,674.47,769.11c-109.83-59.29-143.66-146.35-151.07-162l-.06-.06h0a268.44,268.44,0,0,1-10.88-32.59C490.25,495.43,500.91,406.93,546,338.36Z"/><path id="Retina" class="cls-6" d="M794.79,360.14a22.78,22.78,0,0,1-13.06-41.48c-14.8-20.56-38.72-36.41-73.1-36.41,26.09,54.72,27.33,136.65,0,189.06,56.16,0,91.72-49.29,91.72-96.71A88.08,88.08,0,0,0,799,359.72,22.83,22.83,0,0,1,794.79,360.14Z"/><path id="Upper_beak" data-name="Upper beak" class="cls-7" d="M992.86,494.14c0,76.89-18.91,151.37-54.58,215.24-7.48,13.4-24.52,9.28-29.93-1.92A290.54,290.54,0,0,0,866.71,644q-6.42-7.43-13-14.13c-63.18-64.17-157.44-85.18-144.63-82.65,195.4-99.69,224.61-268.87,224.79-270C969.54,339.23,992.86,414.75,992.86,494.14Z"/><g id="TM"><path class="cls-2" d="M805.19,896H799v-3.29h15.62V896h-6.16v35.24h-3.29Z"/><path class="cls-2" d="M818.36,892.71h3.24l7.1,29.78,7.1-29.78H839v38.53h-3.3v-24l-5.55,23.15h-3l-5.54-23.15v24h-3.31Z"/></g></svg>