<svg id="Layer_1" data-name="Layer 1" xmlns="http://www.w3.org/2000/svg" viewBox="0 0 1000 1000"><defs><style>.cls-1{fill:#666;}.cls-2{fill:#fff;}.cls-3{fill:#fdd106;}.cls-4{fill:#1ac3f3;}.cls-5{fill:#8cc760;}.cls-6{fill:#333;}.cls-7{fill:#888;}</style></defs><path class="cls-1" d="M733.56,581.33l.86-.45-.35-.07-.89.44Z"/><path class="cls-1" d="M877,669.41q-5.84-6.76-11.85-12.86c-51.39-52.2-125.38-73-132.18-75.21-45.73,23-101.6,40.26-169.33,51.57l2.37,6c2.67,2.92,125.86,133.26,311.5,31.12Z"/><path id="Eyeball" class="cls-2" d="M731.73,581.73c169.43-86.61,202.52-230.26,205.75-246.39-.59-1.07-1.22-2.09-1.83-3.14a249.06,249.06,0,0,0-79.21-38.51c-51.35-14.9-106-13.38-155.13,4.61-46.86,16.7-88.83,47.6-118.16,92.28-41.34,63-51.1,144.26-30.71,216.85,1.81,6.85,4,13.57,6.38,20.22,1.18,2.28,2.39,4.53,3.62,6.77,67.9-11.5,123.88-29,169.65-52.39C730.46,581.53,730.16,581.42,731.73,581.73Z"/><path id="Body" class="cls-3" d="M352.72,664.09c-33-56.21-52.35-121.72-54.32-186.87-1.09-35.85.55-74.93-6.52-107.56-6.06-27.94-22.86-44.92-39.41-55.56-13.28-8.54-22.52-11.25-36.86-18.5-.65-.33-1.3-.72-2-1.06-37.06,4.38-78.13-5.13-119.51-43C93,283.05,96.77,316.75,121.85,340c5.61,5.21,12.26,11.85,19,18,11.5,10.5,43.5,22.51,39.85,78.29-2,31.21-5.95,82.32-2.9,118.06A440.67,440.67,0,0,0,285,807.5c136.17,155,391.71,195.64,575.45,27.1h-.18C611.27,904.82,440.71,814,352.72,664.09Z"/><path id="Wing" class="cls-4" d="M702.39,784c-180-52.51-377-346.86-192.3-534.09,128-129.71,272.75-64.74,291.37-55.65a402.78,402.78,0,0,0-377.1-26.38c-.56.27-1.78.84-3.63,1.65-25.52,11.23-170.3,90.8-283.29-12.05,1.69,47.69,18.45,104.08,59.44,128.15,6.12,3.6,12.32,6.94,18.57,10.09,14.33,7.25,23.57,10,36.86,18.5,16.54,10.64,33.35,27.62,39.4,55.57,7.07,32.62,5.43,71.7,6.52,107.55,2,65.15,21.33,130.66,54.32,186.87,88,149.93,258.58,240.75,507.62,170.48h.08"/><path id="Crest" class="cls-5" d="M584.36,391.3c29.12-44.27,70.79-74.89,117.32-91.44,48.79-17.82,103-19.33,154-4.56a246.74,246.74,0,0,1,81.79,40.28,406.21,406.21,0,0,0-93.57-110.75c-.89-.73-1.77-1.5-2.67-2.22-4.76-3.87-9.67-7.56-14.6-11.21-2.3-1.69-4.58-3.41-6.91-5.05-3.93-2.78-8-5.44-12-8.07q-3.69-2.4-7.42-4.72c-18.62-9.08-163.42-74-291.37,55.66-184.7,187.23,12.31,481.58,192.3,534.09-99.95-54-130.74-133.19-137.48-147.44l0,0h0a245.63,245.63,0,0,1-9.9-29.66C533.62,534.23,543.32,453.7,584.36,391.3Z"/><path id="Retina" class="cls-6" d="M810.77,411.12a20.74,20.74,0,0,1-11.88-37.76c-13.47-18.7-35.24-33.13-66.53-33.13,23.74,49.8,24.87,124.36,0,172.06,51.11,0,83.47-44.86,83.47-88a80.33,80.33,0,0,0-1.2-13.54A20.45,20.45,0,0,1,810.77,411.12Z"/><path id="Upper_beak" data-name="Upper beak" class="cls-7" d="M991,533.06c0,70-17.21,137.76-49.67,195.88-6.81,12.2-22.32,8.45-27.25-1.74a263.92,263.92,0,0,0-37.89-57.8q-5.84-6.75-11.85-12.86C806.88,598.15,721.09,579,732.75,581.32,910.58,490.6,937.16,336.63,937.33,335.63,969.81,392.08,991,460.81,991,533.06Z"/></svg>